<svg width="1080" height="1080" viewBox="0 0 1080 1080" fill="none" xmlns="http://www.w3.org/2000/svg">
<path fill-rule="evenodd" clip-rule="evenodd" d="M914 190C938.853 190 959 169.853 959 145C959 120.147 938.853 100 914 100C889.147 100 869 120.147 869 145C869 151.107 870.216 156.93 872.42 162.239C860.294 172.823 847.786 183.68 834.99 194.786L834.987 194.788L834.983 194.792L834.981 194.794L834.976 194.798L834.973 194.801L834.972 194.801L834.969 194.804C823.945 204.373 812.707 214.127 801.315 224.051C809.092 230.491 816.627 237.212 823.905 244.198C833.862 235.527 843.716 226.971 853.427 218.539L853.43 218.536L853.432 218.535C866.758 206.964 879.815 195.626 892.504 184.543C898.891 188.023 906.215 190 914 190ZM919.402 384.299C914.144 371.501 908.258 359.028 901.782 346.918C905.224 344.452 909.442 343 914 343C925.598 343 935 352.402 935 364C935 373.73 928.382 381.915 919.402 384.299ZM989 364C1010.54 364 1028 346.539 1028 325C1028 303.461 1010.54 286 989 286C967.461 286 950 303.461 950 325C950 346.539 967.461 364 989 364Z" fill="#44AD4A"/>
<path fill-rule="evenodd" clip-rule="evenodd" d="M540 950C766.437 950 950 766.437 950 540C950 423.756 901.624 318.811 823.905 244.199C710.96 342.555 584.666 455.738 501.682 571.252C446.272 648.381 411.839 724.404 412.249 795.914C412.417 825.043 418.377 853.952 431.615 882.37C427.346 863.877 425.499 845.305 425.862 826.747C427.147 760.901 456.2 697.392 498.989 640.202C573.059 541.201 690.907 457.594 791.202 408.287C791.068 406.876 791 405.446 791 404C791 379.147 811.147 359 836 359C860.853 359 881 379.147 881 404C881 428.853 860.853 449 836 449C823.408 449 812.023 443.828 803.856 435.492C707.007 483.197 593.497 563.961 523.01 658.174C482.423 712.421 456.977 769.944 455.856 827.332C455.355 852.985 459.705 879.053 470.147 905.241C465.04 875.76 465.541 844.63 475.457 811.901C497.042 740.65 562.029 665.656 700.033 583.954C699.357 581.079 699 578.081 699 575C699 553.461 716.461 536 738 536C759.539 536 777 553.461 777 575C777 596.539 759.539 614 738 614C730.583 614 723.649 611.93 717.746 608.335C580.634 689.075 522.669 759.531 504.168 820.599C490.458 865.855 497.741 908.101 513.918 949.184C513.917 949.184 513.917 949.184 513.917 949.184C522.542 949.725 531.239 950 540 950ZM393.172 922.926C377.583 902.1 365.676 880.041 357.128 856.959C332.816 791.305 336.423 719.372 356.621 647.445C392.56 519.459 482.095 387.709 570.159 282.363C565.629 275.341 563 266.978 563 258C563 233.147 583.147 213 608 213C632.853 213 653 233.147 653 258C653 282.853 632.853 303 608 303C603.074 303 598.332 302.208 593.896 300.745C506.704 404.92 419.874 533.157 385.504 655.555C366.389 723.628 363.84 788.695 385.261 846.541C387.367 852.227 389.712 857.863 392.306 863.444C385.632 841.419 382.381 818.935 382.25 796.086C381.785 715.221 420.477 632.869 477.317 553.748C561.391 436.719 688.819 322.066 801.316 224.052C730.368 165.306 639.308 130 540 130C313.563 130 130 313.563 130 540C130 714.696 239.259 863.873 393.172 922.926Z" fill="#44AD4A"/>
</svg>
